<svg version="1.1" id="Layer_1" xmlns="http://www.w3.org/2000/svg" xmlns:xlink="http://www.w3.org/1999/xlink" x="0px" y="0px"
	 width="100%" viewBox="0 0 1024 528" enable-background="new 0 0 1024 528" xml:space="preserve">
<path fill="#000000" opacity="1.000000" stroke="none" 
	d="
M206.559662,159.215607 
	C230.503250,165.794861 246.811371,179.415939 251.701706,204.415604 
	C257.567474,234.401764 238.194061,261.127777 214.409637,266.710602 
	C213.947830,266.819000 213.523193,267.085754 212.620850,267.479553 
	C223.346176,269.604126 233.224625,272.751343 241.773956,279.094849 
	C256.377991,289.930847 263.724579,304.453094 264.385651,322.643250 
	C265.093353,342.116028 260.012177,359.241058 245.176544,372.602692 
	C233.639664,382.993286 219.659378,387.972260 204.559860,390.304810 
	C196.307663,391.579559 187.992599,391.910553 179.667114,391.928833 
	C154.010254,391.985138 128.353241,391.977234 102.696289,391.967834 
	C96.132416,391.965424 96.027397,391.807190 96.027046,385.230835 
	C96.023209,312.258484 96.017693,239.286118 96.010803,166.313751 
	C96.009895,156.703201 96.005196,156.696030 105.410988,156.694275 
	C131.234543,156.689484 157.058334,156.751801 182.881531,156.654053 
	C190.752853,156.624268 198.498093,157.365967 206.559662,159.215607 
M133.601715,283.301758 
	C124.430908,283.326874 125.311699,282.551819 125.306908,291.660248 
	C125.294891,314.482056 125.411270,337.304688 125.231087,360.125000 
	C125.197014,364.439880 126.385384,365.964050 130.845612,365.905609 
	C148.833557,365.669891 166.825882,365.727905 184.816483,365.753632 
	C192.209778,365.764221 199.414139,364.535583 206.455597,362.482666 
	C223.730499,357.446228 234.259277,344.197235 234.663635,327.286621 
	C235.159286,306.559204 226.701187,293.906311 208.062180,287.582642 
	C199.634781,284.723480 190.902588,283.453613 182.051605,283.363647 
	C166.227844,283.202728 150.401382,283.308044 133.601715,283.301758 
M222.854248,214.719833 
	C222.576797,212.583054 222.518356,210.390076 221.986618,208.318558 
	C218.312256,194.003998 205.992889,184.811066 188.909836,183.264648 
	C169.794785,181.534241 150.642090,182.889435 131.518707,182.310760 
	C126.753479,182.166580 125.150963,183.666885 125.212433,188.520981 
	C125.450600,207.330338 125.311844,226.144440 125.317482,244.956772 
	C125.321365,257.902740 125.327332,258.078217 138.109451,257.861450 
	C154.397034,257.585205 170.765121,259.211243 186.958405,256.625580 
	C207.325134,253.373550 224.742126,241.629761 222.854248,214.719833 
z"/>
<path fill="#000000" opacity="1.000000" stroke="none" 
	d="
M717.457397,321.511780 
	C737.467346,267.617157 757.387390,214.104401 777.110596,160.519196 
	C778.757202,156.045670 780.939026,154.263382 785.754211,154.550812 
	C792.726501,154.967026 799.746277,154.816605 806.736633,154.604904 
	C810.242859,154.498734 812.093201,155.618942 813.361023,159.059174 
	C833.852478,214.662064 854.476257,270.216187 875.064575,325.783417 
	C882.698059,346.385864 890.334351,366.987274 897.914368,387.609406 
	C898.584167,389.431549 899.797729,391.188965 899.034546,394.293427 
	C893.872681,394.293427 888.469299,394.414215 883.073792,394.259125 
	C877.774475,394.106812 871.558105,396.224091 867.422424,393.370300 
	C863.272705,390.506775 863.116272,383.943512 861.328247,378.965912 
	C855.644226,363.142151 849.988708,347.306122 844.572937,331.389465 
	C843.270691,327.562256 841.236023,326.327606 837.291077,326.348083 
	C809.314209,326.493286 781.335632,326.518738 753.359192,326.344757 
	C749.266663,326.319305 747.576050,327.794037 746.298889,331.520905 
	C739.716248,350.728729 732.764404,369.809967 726.172913,389.014832 
	C724.822632,392.949036 722.882690,394.531494 718.630981,394.385529 
	C709.693237,394.078766 700.737671,394.292389 690.436890,394.292389 
	C699.662170,369.437622 708.489136,345.656189 717.457397,321.511780 
M774.206177,252.570724 
	C768.819702,267.881927 763.433289,283.193146 757.812866,299.169403 
	C783.267273,299.169403 807.728882,299.169403 832.243774,299.169403 
	C831.734741,294.465393 798.261230,198.626495 795.195251,193.131561 
	C788.161621,212.995377 781.289307,232.403656 774.206177,252.570724 
z"/>
<path fill="#000000" opacity="1.000000" stroke="none" 
	d="
M490.105835,391.926819 
	C488.456421,391.927673 487.286987,391.875549 486.123932,391.939392 
	C482.387573,392.144501 480.668427,390.644104 480.792084,386.671478 
	C481.004395,379.850433 480.850800,373.017975 480.850800,365.088776 
	C476.512238,371.400116 472.261993,376.488983 467.119812,380.812836 
	C446.541260,398.116333 412.818848,399.976715 391.510284,384.816406 
	C375.447083,373.387939 369.246796,357.319214 371.014862,338.258514 
	C372.851624,318.457397 385.097809,306.601959 402.927216,299.760559 
	C412.176270,296.211517 421.877441,294.564789 431.701385,293.915283 
	C445.819305,292.981995 459.958344,292.359772 474.091644,291.672211 
	C480.402649,291.365234 480.866669,291.036896 480.803131,284.671753 
	C480.753296,279.682129 481.066925,274.594696 480.217163,269.725586 
	C478.027985,257.181519 470.337799,249.104034 458.131134,245.879074 
	C446.967133,242.929550 435.670929,243.067703 424.722229,247.178513 
	C415.124115,250.782211 408.352448,257.413208 405.445984,267.359406 
	C404.395599,270.954010 402.594879,272.156281 399.058228,272.040192 
	C393.398315,271.854401 387.726715,271.910461 382.062531,272.008301 
	C378.452820,272.070648 377.012604,270.866852 377.578888,266.952728 
	C379.727844,252.099548 387.040405,240.445160 399.028381,231.681549 
	C421.328033,215.379730 461.702850,214.373367 484.978058,229.282990 
	C500.885010,239.472595 508.932007,254.262146 509.138062,272.768982 
	C509.561096,310.759583 509.234375,348.758209 509.359192,386.753052 
	C509.372345,390.752106 507.851654,392.097412 504.085144,391.965576 
	C499.591400,391.808350 495.087982,391.927521 490.105835,391.926819 
M428.400116,316.931549 
	C424.250580,317.462921 420.229370,318.474243 416.377289,320.127563 
	C405.198273,324.925690 398.910309,333.860413 399.411499,344.242828 
	C399.962799,355.664185 406.617065,364.463989 418.306458,368.006378 
	C433.994476,372.760529 449.038727,370.789032 462.683197,361.564240 
	C478.820404,350.654205 482.340881,334.426666 480.813324,316.286560 
	C480.603546,313.795685 479.154083,313.295013 477.068390,313.439056 
	C461.131683,314.539520 445.194702,315.636383 428.400116,316.931549 
z"/>
<path fill="#000000" opacity="1.000000" stroke="none" 
	d="
M648.600098,276.521149 
	C647.587036,271.346375 646.537903,266.654633 644.364136,262.267670 
	C639.177917,251.800934 630.370422,246.208130 619.226807,244.664871 
	C591.728333,240.856659 572.018188,253.623016 566.752869,280.055481 
	C565.059814,288.554443 565.500366,297.307343 565.484314,305.946960 
	C565.434326,332.764526 565.530334,359.583313 565.792664,386.399445 
	C565.833130,390.543304 564.609741,392.137848 560.457092,391.987579 
	C554.633240,391.776886 548.789307,391.765106 542.966614,391.992371 
	C538.757629,392.156647 537.569519,390.378204 537.588806,386.363342 
	C537.715393,360.038696 537.651062,333.713135 537.651001,307.387878 
	C537.650940,281.062592 537.772949,254.736298 537.549072,228.412949 
	C537.506409,223.399902 538.919556,221.487564 544.026917,221.831467 
	C549.500366,222.200027 555.021973,222.042114 560.514709,221.867157 
	C564.140625,221.751663 565.471130,223.206772 565.621155,226.814270 
	C565.861511,232.595688 565.134460,238.427368 566.296631,244.693207 
	C570.239990,240.370071 573.370117,235.935791 577.591125,232.428101 
	C591.419556,220.936554 607.559998,217.722565 624.872498,219.085876 
	C660.401733,221.883636 676.932312,248.180161 677.235229,278.416870 
	C677.594116,314.235687 677.249512,350.061127 677.420837,385.882660 
	C677.442505,390.422882 676.163208,392.225891 671.538208,391.993347 
	C666.053955,391.717590 660.531128,391.694458 655.050720,392.009003 
	C650.336670,392.279541 649.147339,390.336304 649.185364,385.877838 
	C649.441162,355.892303 649.520447,325.904755 649.519714,295.917877 
	C649.519592,289.599396 648.950623,283.280945 648.600098,276.521149 
z"/>
<path fill="#000000" opacity="1.000000" stroke="none" 
	d="
M907.694336,229.999939 
	C907.691711,206.518417 907.793213,183.536026 907.599060,160.556152 
	C907.560425,155.980789 908.976318,154.381378 913.574646,154.581985 
	C920.888306,154.901062 928.227417,154.764801 935.552490,154.636429 
	C938.742676,154.580521 940.190125,155.831955 940.079590,159.013580 
	C940.016052,160.842514 940.112976,162.676483 940.112854,164.508194 
	C940.107666,238.282150 940.099915,312.056122 940.090149,385.830078 
	C940.089966,387.328644 940.054260,388.827179 940.048218,390.325775 
	C940.037659,392.929230 938.934937,394.314575 936.134338,394.290680 
	C927.974976,394.220978 919.814575,394.234680 911.654846,394.268738 
	C908.967346,394.279968 907.634399,393.102692 907.708008,390.370911 
	C907.748352,388.873535 907.694702,387.373749 907.694641,385.875061 
	C907.693726,334.083344 907.694214,282.291656 907.694336,229.999939 
z"/>
<path fill="#000000" opacity="1.000000" stroke="none" 
	d="
M285.685730,288.999939 
	C285.683807,268.333649 285.819672,248.165787 285.580811,228.002350 
	C285.522644,223.094635 287.200348,221.496994 291.924377,221.822342 
	C296.568817,222.142212 301.252686,221.886627 305.919250,221.889389 
	C314.085449,221.894226 314.090424,221.896088 314.106293,230.318542 
	C314.116150,235.561508 314.108124,240.804504 314.510529,246.110062 
	C317.323059,241.652374 319.510345,237.016205 322.901489,233.108398 
	C333.493713,220.902359 346.812500,216.930878 362.490204,219.649857 
	C365.312531,220.139328 365.988953,221.867249 366.008514,224.214523 
	C366.061401,230.547028 366.040009,236.880112 366.058350,243.212952 
	C366.067017,246.203247 364.943573,247.199158 361.718445,246.721634 
	C354.787933,245.695465 347.730865,245.260574 340.838623,246.859238 
	C325.372711,250.446564 314.600311,263.776886 314.378387,280.880707 
	C313.961090,313.041016 314.160736,345.209320 314.103973,377.374298 
	C314.098389,380.540863 313.975128,383.712891 314.119659,386.872589 
	C314.284821,390.483765 312.743378,392.048798 309.121674,391.982483 
	C303.290558,391.875702 297.447052,391.765839 291.625549,392.028687 
	C287.111298,392.232452 285.568207,390.645020 285.593445,385.997620 
	C285.768158,353.832520 285.685669,321.665985 285.685730,288.999939 
z"/>
</svg>