<svg width="256" height="256" viewBox="0 0 281.332 281.332" xmlns="http://www.w3.org/2000/svg">
  <defs>
    <clipPath id="b-outer-r15">
      <rect x="40.656" y="0" width="200.021" height="281.332" rx="25" ry="25" />
    </clipPath>
  </defs>
  <rect x="40.656" y="0" width="200.021" height="281.332" rx="25" ry="25" fill="transparent" />
  <g clip-path="url(#b-outer-r15)">
  <path
    fill="#111111"
    fill-rule="evenodd"
    d="
      M198.102,134.449
      c15.233-11.431,28.497-29.829,28.497-59.239
      v-0.753
      c0-18.694-6.274-34.93-18.649-48.258
      c-0.059-0.064-0.12-0.127-0.181-0.189
      C191.021,8.994,165.96,0,135.294,0
      H49.656
      c-4.971,0-9,4.029-9,9
      v263.332
      c0,4.971,4.029,9,9,9
      h90.331
      c29.385,0,54.297-7.214,72.043-20.863
      c18.741-14.414,28.647-35.157,28.647-59.988
      v-0.753
      C240.677,170.226,226.043,147.94,198.102,134.449
      z

      M125 38 L171 110 L79 110 Z

      M128.000 162.225
      L143.474 162.574
      L149.860 163.629
      L154.465 165.411
      L157.950 167.969
      L160.544 171.405
      L162.352 175.945
      L163.421 182.242
      L163.775 197.500
      L163.421 212.758
      L162.352 219.055
      L160.544 223.595
      L157.950 227.031
      L154.465 229.589
      L149.860 231.371
      L143.474 232.426
      L128.000 232.775
      L112.526 232.426
      L106.140 231.371
      L101.535 229.589
      L98.050 227.031
      L95.456 223.595
      L93.648 219.055
      L92.579 212.758
      L92.225 197.500
      L92.579 182.242
      L93.648 175.945
      L95.456 171.405
      L98.050 167.969
      L101.535 165.411
      L106.140 163.629
      L112.526 162.574
      Z
    "
  />
  </g>
</svg>
